{"title":"Brave (2012) 720p BluRay (Greek - Hellenic Audio)","uid":7847707,"size":704501905,"categoryP":"video","categoryS":"hd___movies","magnet":"?xt=urn:btih:56ec9474bafeb5d5579514dcc2cd7e8ee96ffaf5&amp;dn=Brave+%282012%29+720p+BluRay+%28Greek+-+Hellenic+Audio%29&amp;tr=udp%3A%2F%2Ftracker.openbittorrent.com%3A80&amp;tr=udp%3A%2F%2Fopen.demonii.com%3A1337&amp;tr=udp%3A%2F%2Ftracker.coppersurfer.tk%3A6969&amp;tr=udp%3A%2F%2Fexodus.desync.com%3A6969","seeders":5,"leechers":0,"uploader":"ThePirateBayHellas","files":-1,"time":1353517084,"description":"H nea tainia tis Disney/Pixar.\n\nEnglish Plot:\nSet in Scotland in a rugged and mythical time, &quot;Brave&quot; features Merida, an aspiring archer and impetuous daughter of royalty. Merida makes a reckless choice that unleashes unintended peril and forces her to spring into action to set things right.\n\nGreek (Hellenic) Plot:\nSta Xailants tis Skwtias, i Merinta, kori tou Vasilia Fergkous kai tis Vasilisas Elinor, me talento stin toksovolia einai apofasismeni na xaraksei to diko tis monopati sti zwi. I Merinta apsifa ena arxaio ethimo, iero stous arxontes twn Xailants. Oi prakseis tis Merinta prokaloyn xaos kai orgi sto vasileio kai otan strefetai se mia ekkentriki magissa gia na zitisei voitheia, i magissa tis leei na kanei mia efxi i opoia metatrepetai se katara kai peftei panw stin oikogeneia tis. I Merinta tote tha anakalypsei to pragmatiko noima tis gennaiotitas stin prospatheia tis na antistrepsei tin katara prin na einai poly arga.\n\n\nTechnical Details:\n\nGeneral\nComplete name                    : Brave (2012) 720p BluRay (Greek - Hellenic Audio) - YIFY.mp4\nFormat                           : MPEG-4\nFormat profile                   : Base Media\nCodec ID                         : isom\nFile size                        : 672 MiB\nDuration                         : 1h 33mn\nOverall bit rate                 : 1 003 Kbps\nWriting application              : My MP4Box GUI 0.5.6.0\n\nVideo\nID                               : 1\nFormat                           : AVC\nFormat/Info                      : Advanced Video Codec\nFormat profile                   : &lt;a class=&quot;__cf_email__&quot; href=&quot;/cdn-cgi/l/email-protection&quot; data-cfemail=&quot;b2fadbd5daf2fe869c82&quot;&gt;[email&amp;#160;protected]&lt;/a&gt;&lt;script cf-hash='f9e31' type=&quot;text/javascript&quot;&gt;\n/* &lt;![CDATA[ */!function(){try{var t=&quot;currentScript&quot;in document?document.currentScript:function(){for(var t=document.getElementsByTagName(&quot;script&quot;),e=t.length;e--;)if(t[e].getAttribute(&quot;cf-hash&quot;))return t[e]}();if(t&amp;&amp;t.previousSibling){var e,r,n,i,c=t.previousSibling,a=c.getAttribute(&quot;data-cfemail&quot;);if(a){for(e=&quot;&quot;,r=parseInt(a.substr(0,2),16),n=2;a.length-n;n+=2)i=parseInt(a.substr(n,2),16)^r,e+=String.fromCharCode(i);e=document.createTextNode(e),c.parentNode.replaceChild(e,c)}}}catch(u){}}();/* ]]&gt; */&lt;/script&gt;\nFormat settings, CABAC           : Yes\nFormat settings, ReFrames        : 5 frames\nCodec ID                         : avc1\nCodec ID/Info                    : Advanced Video Coding\nDuration                         : 1h 33mn\nBit rate mode                    : Variable\nBit rate                         : 801 Kbps\nMaximum bit rate                 : 6 090 Kbps\nWidth                            : 1 280 pixels\nHeight                           : 536 pixels\nDisplay aspect ratio             : 2.35:1\nFrame rate mode                  : Constant\nFrame rate                       : 23.976 fps\nColor space                      : YUV\nChroma subsampling               : 4:2:0\nBit depth                        : 8 bits\nScan type                        : Progressive\nBits/(Pixel*Frame)               : 0.049\nStream size                      : 536 MiB (80%)\nWriting library                  : x264 core 125 r2200 999b753\n\nAudio\nID                               : 2\nFormat                           : AAC\nFormat/Info                      : Advanced Audio Codec\nFormat profile                   : LC\nCodec ID                         : 40\nDuration                         : 1h 33mn\nBit rate mode                    : Variable\nBit rate                         : 199 Kbps\nMaximum bit rate                 : 261 Kbps\nChannel(s)                       : 2 channels\nChannel positions                : Front: L R\nSampling rate                    : 44.1 KHz\nCompression mode                 : Lossy\nStream size                      : 133 MiB (20%)\n\n\nProteinomenos player: VLC Media player\n\n\nScreens: &lt;a href=&quot;\nhttp://i.imgur.com/mC6qu.png&quot; rel=&quot;nofollow&quot; target=&quot;_NEW&quot;&gt;\nhttp://i.imgur.com/mC6qu.png&lt;/a&gt; &lt;a href=&quot;\nhttp://i.imgur.com/CFcJw.jpg&quot; rel=&quot;nofollow&quot; target=&quot;_NEW&quot;&gt;\nhttp://i.imgur.com/CFcJw.jpg&lt;/a&gt; &lt;a href=&quot;\nhttp://i.imgur.com/An7Tl.jpg&quot; rel=&quot;nofollow&quot; target=&quot;_NEW&quot;&gt;\nhttp://i.imgur.com/An7Tl.jpg&lt;/a&gt; &lt;a href=&quot;\nhttp://i.imgur.com/EZ5Sf.jpg&quot; rel=&quot;nofollow&quot; target=&quot;_NEW&quot;&gt;\nhttp://i.imgur.com/EZ5Sf.jpg&lt;/a&gt;\n\n\nSources:\nVideo: BRRip (YIFY: https://thepiratebay.se/torrent/7784965/)\nAudio: BRRip (SuperNova Team)\n\n\nTHE PIRATE BAY HELLAS\n","torrent":{"xt":"urn:btih:56ec9474bafeb5d5579514dcc2cd7e8ee96ffaf5","amp;dn":"Brave+%282012%29+720p+BluRay+%28Greek+-+Hellenic+Audio%29","amp;tr":["udp%3A%2F%2Ftracker.openbittorrent.com%3A80","udp%3A%2F%2Fopen.demonii.com%3A1337","udp%3A%2F%2Ftracker.coppersurfer.tk%3A6969","udp%3A%2F%2Fexodus.desync.com%3A6969"],"infoHash":"56ec9474bafeb5d5579514dcc2cd7e8ee96ffaf5","infoHashBuffer":{"type":"Buffer","data":[86,236,148,116,186,254,181,213,87,149,20,220,194,205,126,142,233,111,250,245]},"announce":[],"urlList":[]}}